<?xml version="1.0" encoding="UTF-8" standalone="no"?>
<svg
   xmlns:dc="http://purl.org/dc/elements/1.1/"
   xmlns:cc="http://creativecommons.org/ns#"
   xmlns:rdf="http://www.w3.org/1999/02/22-rdf-syntax-ns#"
   xmlns:svg="http://www.w3.org/2000/svg"
   xmlns="http://www.w3.org/2000/svg"
   xmlns:sodipodi="http://sodipodi.sourceforge.net/DTD/sodipodi-0.dtd"
   xmlns:inkscape="http://www.inkscape.org/namespaces/inkscape"
   height="16"
   width="16"
   version="1.1"
   viewBox="0 0 16 16"
   id="svg3793"
   sodipodi:docname="f1-logo.svg"
   inkscape:version="0.92.2 (5c3e80d, 2017-08-06)">
  <metadata
     id="metadata3799">
    <rdf:RDF>
      <cc:Work
         rdf:about="">
        <dc:format>image/svg+xml</dc:format>
        <dc:type
           rdf:resource="http://purl.org/dc/dcmitype/StillImage" />
        <dc:title />
      </cc:Work>
    </rdf:RDF>
  </metadata>
  <defs
     id="defs3797" />
  <sodipodi:namedview
     pagecolor="#000000"
     bordercolor="#666666"
     borderopacity="1"
     objecttolerance="10"
     gridtolerance="10"
     guidetolerance="10"
     inkscape:pageopacity="0"
     inkscape:pageshadow="2"
     inkscape:window-width="1863"
     inkscape:window-height="1025"
     id="namedview3795"
     showgrid="true"
     inkscape:snap-bbox="true"
     inkscape:zoom="50.875"
     inkscape:cx="3.3001808"
     inkscape:cy="8.065388"
     inkscape:window-x="57"
     inkscape:window-y="27"
     inkscape:window-maximized="1"
     inkscape:current-layer="svg3793"
     inkscape:pagecheckerboard="true">
    <inkscape:grid
       type="xygrid"
       id="grid14" />
  </sodipodi:namedview>
  <g
     id="g15"
     transform="matrix(1,0,0,1.5277778,0,-4.2222222)">
    <g
       transform="translate(-0.09624961,-4.6618848)"
       id="g12">
      <path
         d="M 8.9072804,9.3891575 C 8.0897621,10.242912 7.0516436,11.083116 5.6761367,11.083116 l -0.8304949,1.21965 H 6.4806784 L 5.2868423,14.078034 H 3.6518057 L 2.4060635,15.934612 H 0.09625 L 4.4952769,9.3891575 Z"
         id="path3769"
         style="fill:#ffffff;stroke-width:0.11050797"
         inkscape:connector-curvature="0" />
      <polygon
         points="123.12,51.6 92.52,53.64 92.4,53.76 120.36,55.68 120.24,55.8 83.88,57.96 95.76,41.16 129.12,43.2 129,43.32 98.4,45.36 98.28,45.48 126.24,47.28 126.12,47.52 95.52,49.44 95.4,49.68 123.24,51.48 "
         id="polygon3771"
         style="fill:#ffffff"
         transform="matrix(0.10813733,0,0,0.11293054,-1.0067509,9.3891575)" />
      <polygon
         points="91.2,33.12 134.88,34.92 134.88,35.04 88.32,37.08 88.32,37.32 132,39 131.88,39.12 79.56,41.52 108.72,0 158.16,1.92 158.04,2.04 111.48,4.2 111.48,4.32 155.28,6 155.16,6.12 108.6,8.28 108.6,8.4 152.4,10.08 152.28,10.32 105.72,12.36 105.6,12.6 149.4,14.28 149.28,14.4 102.84,16.56 102.72,16.68 146.52,18.36 146.4,18.48 99.96,20.64 99.84,20.76 143.64,22.56 143.52,22.68 97.08,24.72 96.96,24.96 140.76,26.64 140.64,26.76 94.08,28.92 94.08,29.04 137.88,30.72 137.76,30.96 91.32,33 "
         id="polygon3773"
         style="fill:#ffffff"
         transform="matrix(0.10813733,0,0,0.11293054,-1.0067509,9.3891575)" />
    </g>
  </g>
</svg>
